<?xml version="1.0" encoding="UTF-8"?><svg xmlns="http://www.w3.org/2000/svg" xmlns:xlink="http://www.w3.org/1999/xlink" width="375pt" zoomAndPan="magnify" viewBox="0 0 375 374.999991" height="374.999991pt" preserveAspectRatio="xMidYMid meet" version="1.2"><defs><clipPath xml:id="clip1" id="clip1"><path d="M 74 159 L 300 159 L 300 342.597656 L 74 342.597656 Z M 74 159 "/></clipPath><clipPath xml:id="clip2" id="clip2"><path d="M 102 32.097656 L 181 32.097656 L 181 134 L 102 134 Z M 102 32.097656 "/></clipPath><clipPath xml:id="clip3" id="clip3"><path d="M 193 32.097656 L 272 32.097656 L 272 134 L 193 134 Z M 193 32.097656 "/></clipPath></defs><g xml:id="surface1" id="surface1"><g clip-rule="nonzero" clip-path="url(#clip1)"><path style=" stroke:none;fill-rule:nonzero;fill:rgb(92.158508%,54.508972%,5.099487%);fill-opacity:1;" d="M 250.207031 217.023438 C 228.878906 192.757812 219.824219 159.816406 186.800781 159.816406 C 153.777344 159.816406 144.71875 192.757812 123.394531 217.023438 C 104.316406 238.730469 74.253906 248.835938 74.253906 278.964844 C 74.253906 314.113281 102.789062 342.601562 137.984375 342.601562 C 157.585938 342.601562 168.621094 319.863281 186.800781 319.863281 C 204.976562 319.863281 216.015625 342.601562 235.613281 342.601562 C 270.8125 342.601562 299.34375 314.113281 299.34375 278.964844 C 299.34375 248.835938 269.285156 238.730469 250.207031 217.023438 "/></g><g clip-rule="nonzero" clip-path="url(#clip2)"><path style=" stroke:none;fill-rule:nonzero;fill:rgb(92.158508%,54.508972%,5.099487%);fill-opacity:1;" d="M 180.019531 82.640625 C 180.019531 110.554688 162.617188 133.1875 141.148438 133.1875 C 119.683594 133.1875 102.277344 110.554688 102.277344 82.640625 C 102.277344 54.722656 119.683594 32.09375 141.148438 32.09375 C 162.617188 32.09375 180.019531 54.722656 180.019531 82.640625 "/></g><g clip-rule="nonzero" clip-path="url(#clip3)"><path style=" stroke:none;fill-rule:nonzero;fill:rgb(92.158508%,54.508972%,5.099487%);fill-opacity:1;" d="M 271.316406 82.640625 C 271.316406 110.554688 253.917969 133.1875 232.449219 133.1875 C 210.980469 133.1875 193.578125 110.554688 193.578125 82.640625 C 193.578125 54.722656 210.980469 32.09375 232.449219 32.09375 C 253.917969 32.09375 271.316406 54.722656 271.316406 82.640625 "/></g><path style=" stroke:none;fill-rule:nonzero;fill:rgb(92.158508%,54.508972%,5.099487%);fill-opacity:1;" d="M 106.820312 155.273438 C 112.089844 182.691406 99.273438 208.191406 78.1875 212.234375 C 57.105469 216.273438 35.742188 197.324219 30.472656 169.90625 C 25.203125 142.492188 38.019531 116.992188 59.101562 112.949219 C 80.183594 108.90625 101.546875 127.855469 106.820312 155.273438 "/><path style=" stroke:none;fill-rule:nonzero;fill:rgb(92.158508%,54.508972%,5.099487%);fill-opacity:1;" d="M 340.460938 176.609375 C 330.964844 202.867188 306.894531 218.25 286.707031 210.964844 C 266.511719 203.6875 257.847656 176.496094 267.34375 150.242188 C 276.84375 123.988281 300.90625 108.605469 321.101562 115.882812 C 341.289062 123.164062 349.957031 150.359375 340.460938 176.609375 "/></g></svg>